<?xml version="1.0" standalone="no"?>
<!DOCTYPE svg PUBLIC "-//W3C//DTD SVG 20010904//EN"
 "http://www.w3.org/TR/2001/REC-SVG-20010904/DTD/svg10.dtd">
<svg version="1.0" xmlns="http://www.w3.org/2000/svg"
 width="512.000000pt" height="512.000000pt" viewBox="0 0 512.000000 512.000000"
 preserveAspectRatio="xMidYMid meet">

<g transform="translate(0.000000,512.000000) scale(0.100000,-0.100000)"
fill="#000000" stroke="none">
<path d="M3529 3398 c72 -146 86 -213 86 -408 -1 -188 -12 -244 -75 -375 -117
-243 -368 -411 -700 -470 -68 -12 -180 -18 -392 -22 l-298 -6 0 -453 0 -454
-322 0 -323 0 605 -605 605 -605 1045 2 c974 3 1048 4 1090 21 110 43 199 130
244 240 21 51 21 61 24 822 l2 770 -818 818 -818 818 45 -93z"/>
<path d="M2150 3016 l0 -386 243 0 c313 0 395 19 479 107 127 134 110 435 -34
569 -92 86 -104 89 -415 92 l-273 3 0 -385z"/>
</g>
</svg>
